<mxfile><diagram id="7pJ3lP_63AuZIDKgJOPM" name="Page-1"><mxGraphModel dx="1173" dy="766" grid="1" gridSize="10" guides="1" tooltips="1" connect="1" arrows="1" fold="1" page="1" pageScale="1" pageWidth="900" pageHeight="1600" background="#ffffff" math="0" shadow="0"><root><mxCell id="0"/><mxCell id="1" parent="0"/><mxCell id="5" value="" style="edgeStyle=none;html=1;" edge="1" parent="1" source="3" target="4"><mxGeometry relative="1" as="geometry"/></mxCell><mxCell id="3" value="Main" style="rounded=0;whiteSpace=wrap;html=1;" vertex="1" parent="1"><mxGeometry x="260" y="100" width="120" height="60" as="geometry"/></mxCell><mxCell id="7" value="" style="edgeStyle=none;html=1;" edge="1" parent="1" source="4" target="6"><mxGeometry relative="1" as="geometry"/></mxCell><mxCell id="9" value="" style="edgeStyle=none;html=1;" edge="1" parent="1" source="4" target="8"><mxGeometry relative="1" as="geometry"/></mxCell><mxCell id="4" value="ChatServer" style="whiteSpace=wrap;html=1;rounded=0;" vertex="1" parent="1"><mxGeometry x="260" y="240" width="120" height="60" as="geometry"/></mxCell><mxCell id="6" value="ServerThread" style="whiteSpace=wrap;html=1;rounded=0;" vertex="1" parent="1"><mxGeometry x="460" y="240" width="120" height="60" as="geometry"/></mxCell><mxCell id="11" value="" style="edgeStyle=none;html=1;" edge="1" parent="1" source="8" target="10"><mxGeometry relative="1" as="geometry"/></mxCell><mxCell id="8" value="ChatClient" style="whiteSpace=wrap;html=1;rounded=0;" vertex="1" parent="1"><mxGeometry x="260" y="380" width="120" height="60" as="geometry"/></mxCell><mxCell id="10" value="ClientThread" style="whiteSpace=wrap;html=1;rounded=0;" vertex="1" parent="1"><mxGeometry x="460" y="380" width="120" height="60" as="geometry"/></mxCell></root></mxGraphModel></diagram></mxfile>